<?xml version="1.0" encoding="UTF-8" standalone="no"?>
<svg
   width="128"
   height="128"
   viewBox="0 0 3.84 3.84"
   fill="none"
   version="1.1"
   id="svg1"
   xmlns="http://www.w3.org/2000/svg"
   xmlns:svg="http://www.w3.org/2000/svg">
  <defs
     id="defs1" />
  <path
     fill-rule="evenodd"
     clip-rule="evenodd"
     d="m 1.9142674,3.7842088 c -0.8814997,0 -1.32224859,0 -1.59609402,-0.2738529 C 0.04432607,3.2365216 0.04432607,2.7957577 0.04432607,1.9142674 c 0,-0.8814997 0,-1.32224859 0.27384731,-1.59609402 C 0.59201881,0.04432607 1.0327677,0.04432607 1.9142674,0.04432607 c 0.8814903,0 1.3222542,0 1.5960885,0.27384731 0.2738529,0.27384543 0.2738529,0.71459432 0.2738529,1.59609402 0,0.8814903 0,1.3222542 -0.2738529,1.5960885 C 3.2365216,3.7842088 2.7957577,3.7842088 1.9142674,3.7842088 Z m 0,-2.5711694 c 0.077453,0 0.1402457,0.062791 0.1402457,0.1402456 v 0.4207368 h 0.4207367 c 0.077453,0 0.1402456,0.062793 0.1402456,0.1402456 0,0.077453 -0.062793,0.1402457 -0.1402456,0.1402457 H 2.0545131 v 0.4207367 c 0,0.077453 -0.062793,0.1402456 -0.1402457,0.1402456 -0.077453,0 -0.1402456,-0.062793 -0.1402456,-0.1402456 V 2.0545131 H 1.353285 c -0.077455,0 -0.1402456,-0.062793 -0.1402456,-0.1402457 0,-0.077453 0.062791,-0.1402456 0.1402456,-0.1402456 H 1.7740218 V 1.353285 c 0,-0.077455 0.062793,-0.1402456 0.1402456,-0.1402456 z"
     fill="#1c274c"
     id="path1"
     style="stroke-width:0.186994" />
</svg>
