<?xml version="1.0" encoding="UTF-8" standalone="no"?>
<svg
   fill="#000000"
   width="128"
   height="128"
   viewBox="-1.7 0 3.264 3.264"
   class="cf-icon-svg"
   version="1.1"
   id="svg1"
   xmlns="http://www.w3.org/2000/svg"
   xmlns:svg="http://www.w3.org/2000/svg">
  <defs
     id="defs1" />
  <path
     d="M 1.4376583,1.6137431 A 1.5211864,1.5211864 0 1 1 -0.08352807,0.09255663 1.5209944,1.5209944 0 0 1 1.4376583,1.6137431 Z m -1.30733258,0.00192 0.58257383,-0.582766 A 0.15217629,0.15217629 0 0 0 0.49770077,0.81769971 L -0.08468094,1.4004657 -0.66763909,0.81769971 A 0.15217629,0.15217629 0 0 0 -0.88283792,1.0328985 l 0.5829582,0.5827659 -0.58276597,0.5827661 a 0.15217629,0.15217629 0 0 0 0.21519874,0.2150066 l 0.58257388,-0.582766 0.58276608,0.582766 A 0.15217629,0.15217629 0 0 0 0.71309179,2.1982382 Z"
     id="path1"
     style="display:inline;fill:#ff0000;fill-opacity:1;stroke-width:0.192143" />
</svg>
