<?xml version="1.0" encoding="UTF-8" standalone="no"?>
<svg
   fill="#000000"
   version="1.1"
   id="Capa_1"
   width="128"
   height="128"
   viewBox="0 0 70.75936 70.75936"
   xml:space="preserve"
   xmlns="http://www.w3.org/2000/svg"
   xmlns:svg="http://www.w3.org/2000/svg"><defs
   id="defs3" />
<g
   id="g3"
   style="fill:#c8f5ff;fill-opacity:1;stroke:#6adeef;stroke-width:8.62702;stroke-dasharray:none;stroke-opacity:1"
   transform="matrix(0.1490509,0,0,0.14948634,3.4471925,2.5065977)">
	<g
   id="g2"
   style="fill:#c8f5ff;fill-opacity:1;stroke:#6adeef;stroke-width:8.62702;stroke-dasharray:none;stroke-opacity:1">
		<path
   d="m 409.657,32.474 c -43.146,-43.146 -113.832,-43.146 -156.978,0 l -84.763,84.762 c 29.07,-8.262 60.589,-6.12 88.129,6.732 l 44.063,-44.064 c 17.136,-17.136 44.982,-17.136 62.118,0 17.136,17.136 17.136,44.982 0,62.118 l -55.386,55.386 -36.414,36.414 c -17.136,17.136 -44.982,17.136 -62.119,0 l -47.43,47.43 c 11.016,11.017 23.868,19.278 37.332,24.48 36.415,14.382 78.643,8.874 110.467,-16.219 3.06,-2.447 6.426,-5.201 9.18,-8.262 l 57.222,-57.222 34.578,-34.578 c 43.453,-43.145 43.453,-113.525 10e-4,-156.977 z"
   id="path1"
   style="fill:#c8f5ff;fill-opacity:1;stroke:#6adeef;stroke-width:8.62702;stroke-dasharray:none;stroke-opacity:1" />
		<path
   d="m 184.135,320.114 -42.228,42.228 c -17.136,17.137 -44.982,17.137 -62.118,0 -17.136,-17.136 -17.136,-44.981 0,-62.118 l 91.8,-91.799 c 17.136,-17.136 44.982,-17.136 62.119,0 l 47.43,-47.43 c -11.016,-11.016 -23.868,-19.278 -37.332,-24.48 -38.25,-15.3 -83.232,-8.262 -115.362,20.502 -1.53,1.224 -3.06,2.754 -4.284,3.978 l -91.8,91.799 c -43.146,43.146 -43.146,113.832 0,156.979 43.146,43.146 113.832,43.146 156.978,0 l 82.927,-83.845 c -42.23,9.791 -52.022,8.568 -88.13,-5.814 z"
   id="path2"
   style="fill:#c8f5ff;fill-opacity:1;stroke:#6adeef;stroke-width:8.62702;stroke-dasharray:none;stroke-opacity:1" />
	</g>
</g>
</svg>
