<?xml version="1.0" encoding="UTF-8" standalone="no"?>

<svg
   width="128"
   height="127.99999"
   viewBox="0 0 33.866667 33.866664"
   version="1.1"
   id="svg1"
   xmlns="http://www.w3.org/2000/svg"
   xmlns:svg="http://www.w3.org/2000/svg">
  <defs
     id="defs1" />
  <g
     id="layer1">
    <path
       style="fill:#000000;fill-opacity:1;stroke:#ffffff;stroke-width:0.294159;stroke-linejoin:round;stroke-opacity:1"
       d="m 0.65443061,23.377766 10.20536539,-7.351693 -0.06427,3.749871 c 0,0 6.384296,0.115304 9.607291,0.115304 1.824632,0 4.010317,0.117998 5.361398,-1.065432 0.797635,-0.698657 1.041209,-1.943308 0.954461,-2.97946 -0.118465,-1.414973 -0.417733,-2.830021 -1.492491,-3.799298 -0.964892,-0.870193 -2.338758,-1.449022 -3.659301,-1.465666 -1.347581,-0.01698 -4.311633,-0.01476 -4.311633,-0.01476 l 0.02678,-6.0468658 c 0,0 5.209174,-0.1269759 7.836958,-0.1269759 2.090574,0 3.730335,0.2813604 5.374446,1.5274776 1.165995,0.8837399 2.874757,2.1212447 2.874757,3.8971142 0,3.5737799 -0.03341,6.8479459 -0.03341,10.6502529 0,3.155641 -2.159421,4.126978 -3.036427,4.888332 -1.783594,1.548393 -4.069763,1.553329 -6.468859,1.553329 -4.709142,0 -13.295569,0 -13.295569,0 v 3.244296 z"
       id="path1" />
  </g>
</svg>
