<?xml version="1.0" encoding="UTF-8" standalone="no"?>

<svg
   width="127.99999"
   height="127.99999"
   viewBox="0 0 33.866664 33.866664"
   version="1.1"
   id="svg1"
   xmlns="http://www.w3.org/2000/svg"
   xmlns:svg="http://www.w3.org/2000/svg">
  <defs
     id="defs1" />
  <g
     id="layer1">
    <path
       id="path11"
       style="fill:#e6e6e6;fill-opacity:1;stroke:#b3b3b3;stroke-width:0.792427;stroke-linejoin:round;stroke-dasharray:none;stroke-opacity:1"
       d="m 9.8376422,3.4995279 c -0.413454,0.04422 -0.9249931,0.2733392 -1.5859497,0.7720459 -2.15303,1.6245101 -1.0645387,2.7213368 -0.2780192,3.6576578 0.9643744,1.1480481 0.5272069,2.4297214 -0.2444295,3.5413854 -1.0846469,1.562605 -1.8094411,2.689497 -3.1812011,2.618445 -1.7185528,-0.08902 -3.2061983,0.950419 -3.1817179,2.618962 0.020151,1.373449 0.960489,2.763844 2.9987833,2.826184 1.3729571,0.04199 2.35275,1.613748 2.9993001,2.825667 0.6465497,1.211919 1.3490594,3.417259 0.6769613,4.064868 -0.989134,0.953094 -1.312826,2.263816 0.6769612,4.064868 1.2829023,1.161218 2.6693573,0.639536 3.7666953,-0.946195 1.179214,-1.70405 2.337505,-1.523233 4.127396,-1.422652 1.371435,0.07707 2.886284,-0.325958 3.858679,1.446423 0.660704,1.204262 1.722209,2.911554 3.85868,1.445906 1.132687,-0.77704 2.468135,-2.085182 0.947745,-4.010091 -0.610564,-0.773014 -0.532201,-2.186383 0.948263,-4.010607 1.255317,-1.546798 1.98091,-2.751433 3.181201,-2.618962 1.365308,0.150686 2.84107,-0.224934 3.181718,-2.618445 0.366273,-2.57357 -1.941907,-2.695322 -3.312976,-2.778641 C 28.1324,14.906856 28.128014,13.488893 26.590624,12.103137 25.053235,10.717381 25.023658,9.341954 26.190649,8.2930337 27.35764,7.2441129 27.633021,6.3291961 25.719877,4.5222045 24.596532,3.461188 23.254965,3.1719841 21.630204,4.9759236 20.911774,5.7735833 19.336054,7.1894888 17.196366,7.1086099 15.002057,7.0256665 13.838949,7.4611865 12.285555,5.8053303 11.434493,4.8981315 11.078004,3.3668691 9.8376422,3.4995279 Z m 6.7892498,6.5215661 a 7.4172139,7.0961218 0 0 1 7.417118,7.096207 7.4172139,7.0961218 0 0 1 -7.417118,7.096208 7.4172139,7.0961218 0 0 1 -7.4171184,-7.096208 7.4172139,7.0961218 0 0 1 7.4171184,-7.096207 z" />
  </g>
</svg>
