<?xml version="1.0" encoding="UTF-8" standalone="no"?>

<svg
   width="127.99999"
   height="127.99999"
   viewBox="0 0 33.866664 33.866664"
   version="1.1"
   id="svg1"
   xmlns="http://www.w3.org/2000/svg"
   xmlns:svg="http://www.w3.org/2000/svg">
  <defs
     id="defs1" />
  <g
     id="layer1">
    <path
       style="fill:#000080;fill-opacity:1;fill-rule:nonzero;stroke:#000000;stroke-width:1.465;stroke-linejoin:round;stroke-dasharray:none"
       d="M 9.3745975,32.81176 H 25.632941 c 0,0 0.08996,-6.044498 -0.03778,-10.988966 0.0321,-3.524476 -1.327193,-6.290541 -8.363226,-6.155275 -7.036034,0.135265 -7.7455423,2.805955 -7.7693511,5.331649 -0.034594,3.669826 -0.087981,11.812592 -0.087981,11.812592 z"
       id="path7" />
    <path
       id="path8"
       style="fill:#000080;fill-opacity:1;fill-rule:nonzero;stroke:#000000;stroke-width:0.965;stroke-linejoin:round;stroke-dasharray:none"
       d="M 17.963761,1.3260172 A 11.612947,6.192831 0 0 0 6.3510334,7.5189208 11.612947,6.192831 0 0 0 17.963761,13.711824 11.612947,6.192831 0 0 0 29.576489,7.5189208 11.612947,6.192831 0 0 0 17.963761,1.3260172 Z m -3.947046,2.876827 a 1.5186517,3.4351659 0 0 1 1.518771,3.4349323 1.5186517,3.4351659 0 0 1 -1.518771,3.4354495 1.5186517,3.4351659 0 0 1 -1.518253,-3.4354495 1.5186517,3.4351659 0 0 1 1.518253,-3.4349323 z m 6.47299,0.2160074 a 1.5186517,3.4351659 0 0 1 1.518254,3.4349324 1.5186517,3.4351659 0 0 1 -1.518254,3.435449 1.5186517,3.4351659 0 0 1 -1.51877,-3.435449 1.5186517,3.4351659 0 0 1 1.51877,-3.4349324 z" />
  </g>
</svg>
